<svg xmlns="http://www.w3.org/2000/svg" xmlns:xlink="http://www.w3.org/1999/xlink" version="1.1" x="0px" y="0px" viewBox="0 40 100 45" xml:space="preserve"><g><g><path fill="#000000" d="M97.5625,48.69043c-0.11133-0.54102-0.64062-0.88574-1.18066-0.77832    c-4.31055,0.8877-9.60352,0.77539-9.65332,0.76953c-0.2207,0-0.42969,0.05957-0.60449,0.18555    c-11.01465,7.84961-28.66504,13.11523-34.2207,13.25098c-5.79883,0.1377-18.50488-1.23828-23.7041-1.83691    c-7.01855-0.81152-13.7793,1.92676-14.0625,2.04395c-0.51074,0.21094-0.75391,0.79492-0.54395,1.30566    C13.75195,64.0166,14.125,64.25,14.51758,64.25c0.12695,0,0.25586-0.02441,0.38086-0.0752    c0.06445-0.02734,6.55371-2.65918,13.07227-1.90723c5.23926,0.60449,18.04004,1.99121,23.98145,1.85059    c5.875-0.14355,23.55469-5.34375,35.0625-13.43164c1.27441,0.00781,5.82324-0.00391,9.76953-0.81543    C97.3252,49.75977,97.67383,49.23047,97.5625,48.69043z"/><path fill="#000000" d="M32.34473,59.24414c0.55273,0,1-0.44727,1-1s-0.44727-1-1-1c-0.11816,0-11.86914-0.00879-18.18945-0.78223    l-0.64844-0.0791c-5.87305-0.71191-6.77539-0.82129-7.21387-5.86523c-0.16211-1.86523,0.13965-3.24023,0.89648-4.08594    c0.76367-0.85254,1.76367-0.88574,1.79492-0.88672c0.06934,0,0.1377-0.00684,0.20508-0.02148    c5.33691-1.11914,11.12305-0.99805,16.71582-0.88477c1.04688,0.02246,2.08594,0.04297,3.11328,0.05664    c1.67188,0.02148,3.36621,0.02441,5.07324,0.02832c6.48828,0.0127,13.19727,0.02637,19.4502,1.05078l2.63379,0.43555    c6.94922,1.1582,14.14258,2.3457,21.33594,2.2168c0.13086-0.00879,0.42969,0.00488,0.82617,0.01367    c5.07227,0.11914,5.7207-0.06055,6.09766-0.8125c0.05469-0.10742,0.08887-0.22461,0.10156-0.3457l0.23535-2.27441    c2.99707,1.53125,7.38965,2.6875,7.60645,2.74414c0.53418,0.13574,1.08105-0.18066,1.2207-0.71484    c0.13965-0.53516-0.18066-1.08105-0.71484-1.2207c-0.05957-0.01562-5.91797-1.55762-8.37402-3.27637    c-0.29102-0.20215-0.66699-0.23633-0.98926-0.08984s-0.54199,0.4541-0.5791,0.80664l-0.32617,3.15723    c-1.05273,0.09961-3.37988,0.04688-4.23242,0.02734c-0.43652-0.01074-0.76172-0.01465-0.91113-0.01465    c-7.02832,0.1416-14.11035-1.0459-20.96777-2.18945l-2.64062-0.4375c-6.41113-1.0498-13.20117-1.06348-19.76855-1.07617    c-1.69922-0.00391-3.38672-0.00684-5.05176-0.02832c-1.02148-0.0127-2.05566-0.03418-3.09766-0.05566    c-5.67871-0.11914-11.55273-0.23926-17.08887,0.91016c-0.44434,0.02832-1.94238,0.2207-3.12109,1.50684    c-1.16699,1.27344-1.65039,3.16895-1.43555,5.63477c0.57812,6.66016,3.0332,6.95703,8.96484,7.67676l0.64746,0.07812    C20.35449,59.23535,31.8584,59.24414,32.34473,59.24414z"/><path fill="#000000" d="M43.93848,58.59277c-0.60156,0.39258-3.48535-0.79297-5.94629-2.43164    c-0.46191-0.30664-1.08203-0.18262-1.38672,0.27734c-0.30664,0.45996-0.18164,1.08008,0.27734,1.38672    c1.12305,0.74902,4.42285,2.80566,6.74512,2.80566c0.53223,0,1.0127-0.1084,1.4043-0.36426    c1.2207-0.79785,1.27051-1.75195,1.19043-2.24902c-0.21191-1.33398-1.79004-2.46191-4.44141-3.17578    c-0.53027-0.14062-1.08105,0.17285-1.22559,0.70605c-0.14355,0.5332,0.17285,1.08203,0.70605,1.22559    c2.33691,0.62891,2.95801,1.40137,2.98828,1.53027C44.25,58.30469,44.20508,58.41895,43.93848,58.59277z"/><circle fill="#000000" cx="33.56671" cy="54.68103" r="1.5"/></g></g></svg>