<svg xmlns="http://www.w3.org/2000/svg" xmlns:xlink="http://www.w3.org/1999/xlink" version="1.1" x="0px" y="0px" viewBox="0 30 100 60" xml:space="preserve"><g><g><path fill="#000000" d="M41.95654,69.20996c-4.77344-1.44727-5.45801-3.84375-5.48047-3.92676    c-0.07959-0.3584-0.34863-0.64355-0.70117-0.74512c-1.53986-0.43994-3.87097-1.17407-6.41443-2.08887    c1.06781-1.21729,2.4917-3.58325,2.6098-7.59888c1.54889-0.46484,8.54047-2.40796,13.66351-1.24976    c-1.51709,0.63574-3.6377,1.61719-6.1748,3.03613l-4.01074-0.46289c-0.54492-0.06543-1.04443,0.33008-1.1084,0.87891    c-0.06299,0.54785,0.33057,1.04395,0.87891,1.10742l4.33301,0.5c0.03809,0.00488,0.07666,0.00684,0.11475,0.00684    c0.17188,0,0.34131-0.04395,0.49219-0.12988c5.10791-2.88672,8.59521-3.9834,8.62988-3.99414    c0.38428-0.11914,0.65967-0.45605,0.69922-0.85645s-0.16406-0.78516-0.51758-0.97754    c-5.354-2.90625-14.22943-0.73767-17.0625,0.073c-0.0592-0.77759-0.16547-1.60449-0.32562-2.48511    c2.45557-0.81934,16.51013-4.89478,33.86127,2.45703c0.12744,0.05371,0.25977,0.0791,0.38965,0.0791    c0.38965,0,0.75977-0.22852,0.92139-0.61035c0.21533-0.50781-0.02246-1.09473-0.53076-1.31055    c-17.74261-7.5166-31.85498-3.65405-35.07489-2.58398c-0.06531-0.25806-0.11157-0.49866-0.18585-0.76465    c-0.14795-0.53125-0.7002-0.84473-1.23193-0.69336c-0.53174,0.14844-0.84277,0.7002-0.69385,1.23242    c2.61432,9.35742-0.87164,12.88135-1.73083,13.5835c-5.22809-2.00464-10.69861-4.61572-11.81067-6.94385    c-0.24072-0.50391-0.1582-0.82227-0.0752-1.01855c0.62891-1.48145,4.2334-5.71387,24.07861-12.99121l0.34668-0.12695    c2.41064-0.88867,5.8877-4.40625,7.83691-6.53125c0.84375,3.16113,3.10205,4.27246,7.97803,6.0332    c5.73633,2.07129,9.80518,5.6084,9.8457,5.64355c0.41455,0.36523,1.04639,0.32324,1.41113-0.09082    c0.36426-0.41504,0.32422-1.0459-0.09033-1.41113c-0.17578-0.1543-4.37939-3.81738-10.4873-6.02246    c-5.87305-2.12109-6.72461-2.90723-7.00977-6.47363c-0.03223-0.40332-0.3042-0.74707-0.68896-0.87109    c-0.38477-0.12695-0.80713-0.00391-1.06934,0.30371c-1.52979,1.79883-6.02441,6.66113-8.41748,7.54297l-0.34424,0.12598    c-15.12939,5.54883-23.61865,10.28809-25.23047,14.08789c-0.35693,0.8418-0.31836,1.76172,0.11133,2.66211    c2.3833,4.98926,17.67578,9.72461,21.05322,10.71777c0.50586,1.09766,2.07715,3.4209,6.63232,4.80176    c0.09668,0.0293,0.19434,0.04297,0.29053,0.04297c0.42871,0,0.82568-0.27832,0.95654-0.70996    C42.78369,69.92871,42.48486,69.37012,41.95654,69.20996z"/><path fill="#000000" d="M44.79736,39.37793c-0.5293-0.16309-1.08838,0.12988-1.25195,0.6582    c-0.16455,0.52734,0.12988,1.08789,0.65723,1.25195c0.17627,0.05469,17.70605,5.53223,27.35645,10.27637    c0.17224,0.08472,0.33813,0.15698,0.50671,0.23462c0.00024,0.00024,0.00037,0.00049,0.00061,0.00073    c0.10663,0.07971,0.22473,0.12769,0.34583,0.15967c9.41595,4.12671,13.06647-2.85327,14.65027-5.88428    c0.09033-0.17285,0.17529-0.33594,0.25537-0.48438c0.0957-0.09766,0.21436-0.20117,0.32715-0.28809    c0.0127,0.11523,0.02148,0.26172,0.02148,0.44727c0,1.43359-0.69287,3.25586-1.36328,5.01855    c-0.73096,1.92285-1.36279,3.58398-1.21338,4.9248c0.25439,2.29297,1.39258,6.78027,1.44092,6.9707    c0.11523,0.45215,0.52197,0.75293,0.96875,0.75293c0.08154,0,0.16455-0.00977,0.24707-0.03125    c0.53516-0.13574,0.85889-0.67969,0.72266-1.21582c-0.01172-0.04492-1.15234-4.54102-1.39209-6.69727    c-0.09521-0.86133,0.50977-2.45312,1.09521-3.99316c0.73486-1.93164,1.49414-3.92871,1.49414-5.72949    c0-0.51367,0-2.0752-1.18848-2.53027c-1.19189-0.45312-2.38525,0.7373-2.72266,1.11328    c-0.05176,0.05664-0.09619,0.12012-0.1333,0.18848c-0.10254,0.1875-0.21289,0.39844-0.33203,0.62695    c-1.56793,3.00159-4.12146,7.85315-11.02484,5.38599l0.70111-0.93481c0.33154-0.44141,0.24219-1.06836-0.19971-1.39941    c-0.44238-0.33105-1.06885-0.24219-1.3999,0.2002l-1,1.33337C62.56262,44.92969,44.97418,39.43347,44.79736,39.37793z"/><circle fill="#000000" cx="22.16669" cy="52.16663" r="1.5"/><path fill="#000000" d="M79.56055,57.41406c-1.54443-0.66309-3.36084,0.24219-6.11035,1.6084    c-2.67432,1.3291-6.33691,3.14844-11.34766,4.33789c-9.57275,2.27051-21.2627,1.64746-21.37988,1.6416    c-0.54785-0.02441-1.02344,0.38965-1.05469,0.94141c-0.03076,0.55176,0.39111,1.02441,0.94238,1.05469    c0.41199,0.02295,8.68896,0.4657,17.17743-0.78784c0.72345,0.73743,3.31403,3.1228,6.54572,3.1228c0.55225,0,1-0.44727,1-1    s-0.44775-1-1-1c-1.58081,0-3.02625-0.82227-3.99921-1.55347c0.74933-0.14307,1.49487-0.29932,2.23016-0.47388    c1.63654-0.38818,3.11554-0.8418,4.48114-1.31958l2.13995,1.46411c0.17236,0.11816,0.36914,0.1748,0.56348,0.1748    c0.31885,0,0.63232-0.15234,0.82617-0.43555c0.31201-0.45605,0.19531-1.07812-0.26074-1.38965l-0.98285-0.67249    c1.02295-0.41785,1.95929-0.83936,2.81958-1.24609l2.02655,1.01331C74.32129,62.96582,74.47412,63,74.62402,63    c0.36719,0,0.72021-0.20215,0.89551-0.55273c0.24707-0.49414,0.04688-1.09473-0.44727-1.3418l-0.65784-0.32886    c1.9751-0.98083,3.67822-1.81299,4.35803-1.52466c1.97656,0.84766,6.91895,6.77832,8.01416,8.80664    c0.18066,0.33496,0.5249,0.52441,0.88086,0.52441c0.16016,0,0.32324-0.03809,0.47412-0.12012    c0.48584-0.2627,0.66699-0.86914,0.40479-1.35547C87.42139,65.02539,82.22363,58.55566,79.56055,57.41406z"/></g></g></svg>