<svg xmlns="http://www.w3.org/2000/svg" xmlns:xlink="http://www.w3.org/1999/xlink" version="1.1" x="0px" y="0px" viewBox="0 30 100 50" xml:space="preserve"><g><g><path fill="#000000" d="M93.04297,42.22754c-0.21875-0.50488-0.80566-0.74023-1.31543-0.52051    c-0.08008,0.03516-8.20117,3.5127-13.49219,2.92383c-2.70392-0.30029-7.62262-1.91016-12.33667-3.64087    c-0.16351-0.14001-0.37512-0.21094-0.60205-0.22156c-0.24805-0.09192-0.49469-0.18408-0.7406-0.27625    c3.60614-1.10022,7.30219-2.05371,9.34143-2.34668c-0.83301,1.13477-1.52246,2.2832-1.52246,2.97949    c0,0.55273,0.44531,1.03418,0.99707,1.03418c0.55273,0,0.99707-0.41309,0.99707-0.96484    c0.09082-0.41504,1.15332-1.95898,2.27441-3.30469c0.18555-0.22266,0.26465-0.51465,0.21875-0.80078    c-0.04688-0.28711-0.21582-0.53809-0.46289-0.69043c-1.75586-1.08203-9.96973,1.35352-14.70996,2.90137    c-0.03918,0.0127-0.06671,0.04126-0.10315,0.05835c-3.33136-1.29517-6.09631-2.44238-7.19958-2.90503    c-0.83636-0.35071-2.07855-0.66968-3.54877-0.95715c-0.10107-0.03735-0.20398-0.05652-0.31433-0.05945    c-5.67566-1.06763-14.63025-1.65662-18.79706-1.56152c-3.67285,0.08594-8.18359,1.85156-11.80762,3.27051    c-1.89551,0.74219-3.53223,1.38281-4.63574,1.62793c-1.39551,0.31055-2.21973,0.93164-2.44824,1.84473    c-0.35352,1.41699,0.99121,2.65723,1.26465,2.89062c0.41699,0.36133,1.0459,0.30957,1.40527-0.10645    c0.36035-0.41602,0.31445-1.04688-0.10059-1.40918c-0.34668-0.30176-0.63477-0.74707-0.63574-0.87109    c0.00098-0.00195,0.15527-0.21973,0.94824-0.39551c1.25488-0.2793,2.95898-0.94629,4.93164-1.71875    c3.47754-1.36133,7.80469-3.05566,11.125-3.13281c0.20093-0.00464,0.42865-0.00439,0.64581-0.00623    c0.14874,1.03113,0.3175,2.92578-0.03448,3.98181c-0.1748,0.52344,0.10742,1.08984,0.63184,1.26465    c0.10449,0.03516,0.21191,0.05176,0.31641,0.05176c0.41895,0,0.80859-0.26465,0.94824-0.68359    c0.47247-1.41455,0.30847-3.45703,0.16028-4.59644c1.12836,0.02771,2.36859,0.08276,3.66364,0.16016    c0.19104,1.45203,0.31067,3.30823,0.11615,4.16211c-0.46259,0.12976-0.85986,0.24805-1.14221,0.33569    c-0.52734,0.16309-0.82324,0.72363-0.65918,1.25098c0.16309,0.52734,0.72168,0.82324,1.25098,0.65918    c3.61133-1.11816,7.33594-1.68945,8.125-1.25684c0.13086,0.73535-0.16797,1.6875-0.77832,2.45801    C44.5459,44.25195,43.47852,45.25,41.625,45.25c-2.06641,0-3.36523-0.43945-3.375-0.44336    c-0.52344-0.17969-1.0918,0.09082-1.27637,0.61035c-0.18359,0.52051,0.08984,1.0918,0.61035,1.27637    C37.64844,46.71582,39.18945,47.25,41.625,47.25c1.96875,0,3.77637-0.85742,4.96094-2.35156    c1.0166-1.28418,1.45215-2.91406,1.1377-4.25293c-0.08008-0.33984-0.2998-0.81738-0.89258-1.15625    c-0.28485-0.16284-0.64777-0.26685-1.0578-0.3313c0.02997-1.00122,0.04468-1.83081,0.05206-2.41577    c1.36481,0.16748,2.66205,0.35327,3.81647,0.55688c0.19189,1.23682,0.49188,3.99658-0.11542,6.59839    c-0.12598,0.53809,0.20898,1.07617,0.74609,1.20117c0.07715,0.01758,0.15332,0.02637,0.22852,0.02637    c0.4541,0,0.86523-0.31152,0.97266-0.77246c0.58496-2.50769,0.43896-5.06226,0.2475-6.62915    c0.76605,0.18286,1.41675,0.37402,1.89215,0.57349c0.69977,0.29346,1.67487,0.69861,2.83527,1.17126    c0.00311,0.01404-0.00116,0.02771,0.00262,0.04163c0.01367,0.0498,1.33105,5.0166,0.50684,7.78809    c-0.15723,0.5293,0.14453,1.08691,0.67383,1.24414c0.0957,0.02832,0.19141,0.04102,0.28516,0.04102    c0.43164,0,0.8291-0.28125,0.95898-0.71484c0.6911-2.32593,0.2005-5.63965-0.17535-7.49292    c1.70343,0.67847,3.62457,1.42603,5.60651,2.16333c0.05768,0.90735,0.10083,2.24072-0.0376,2.93213    c-0.1084,0.54199,0.24316,1.06836,0.78418,1.17676c0.06641,0.01367,0.13184,0.01953,0.19727,0.01953    c0.4668,0,0.88477-0.32812,0.97949-0.80371c0.13995-0.69824,0.14618-1.7146,0.11633-2.57837    c0.88043,0.31665,1.76068,0.62549,2.62787,0.92017c0.04572,0.68237,0.04254,1.33496-0.01569,1.55957    c-0.25098,0.4502-0.11719,1.02539,0.31836,1.31738c0.1709,0.11328,0.36426,0.16797,0.55469,0.16797    c0.32324,0,0.63965-0.15625,0.83301-0.44434c0.24097-0.36145,0.35364-1.01282,0.34326-1.93054    c1.62738,0.51941,3.16327,0.96423,4.50226,1.28101c0.26141,0.68152,0.71149,2.15955,0.46692,3.55994    c-4.3324,0.06641-9.78656,1.35559-11.81927,2.09448c-2.66602,0.96875-4.07422,4.56445-5.8584,9.11621    c-0.38379,0.97949-0.78711,2.00781-1.22363,3.06641c-2.72852,6.60645-9.33496,10.81934-17.67188,11.27148    c-9.62012,0.51465-18.66309-3.89941-22.53906-10.99707c-3.16602-5.7959-3.0752-12.95703-2.74121-19.21387    c0.0293-0.55176-0.39453-1.02246-0.94531-1.05273c-0.55176-0.02441-1.02246,0.39355-1.05273,0.94531    c-0.34766,6.53223-0.43359,14.02441,2.9834,20.28027c4.0166,7.35156,13.0293,12.0791,22.77344,12.0791    c0.54102,0,1.08496-0.01465,1.62988-0.04395c9.125-0.49512,16.38184-5.16895,19.41113-12.50488    c0.44238-1.07031,0.84961-2.10938,1.23828-3.10059c1.36591-3.48547,2.56738-6.54346,4.09369-7.64441    c0.03882,0.03174,0.06592,0.07312,0.11041,0.09949c1.36328,0.80469,8.03613,4.65527,11.00391,4.65527    c0.14355,0,0.27832-0.00879,0.40332-0.02734c0.28027-0.04199,0.5293-0.20117,0.68555-0.4375s0.20508-0.52734,0.13477-0.80176    l-1-3.875c-0.13867-0.53516-0.68164-0.85547-1.21875-0.71875c-0.53418,0.13867-0.85645,0.68359-0.71875,1.21875l0.64258,2.4873    c-1.86737-0.49585-5.04608-2.04834-7.61108-3.47852c3.66974-0.96411,9.94946-1.98242,12.61108-1.06348    c2.10388,0.72559,5.76971,1.63965,8.56122,2.29822c0.00452,0.00146,0.00909,0.00183,0.01361,0.0033    c2.02966,0.47852,3.59711,0.82227,3.74548,0.85474c0.5459,0.11914,1.07324-0.22461,1.19043-0.7627    c0.11816-0.54004-0.22363-1.07324-0.7627-1.19043c-0.02814-0.0061-0.96533-0.21167-2.32581-0.52539    c1.61798-3.2749,0.61121-6.58081-0.05096-8.11743c1.62628-0.56274,2.72913-1.03442,2.85236-1.08765    C93.0293,43.32324,93.26172,42.73438,93.04297,42.22754z M43.77399,39.11963c-1.12537,0.08606-2.35278,0.30713-3.47461,0.56128    c0.07434-1.16211-0.04468-2.5332-0.16064-3.49744c1.22668,0.09265,2.46918,0.20447,3.68945,0.33154    C43.8219,37.09253,43.80725,38.00598,43.77399,39.11963z M84.06207,51.36963c-0.28253-0.07373-0.56262-0.14734-0.83746-0.22107    c0.63715-2.34338,0.48413-3.91443,0.21985-4.84729c0.3114-0.05615,0.62018-0.11633,0.92792-0.18115    C84.43256,48.1394,84.33038,50.30225,84.06207,51.36963z M78.00299,49.79297c0.15149-1.17285-0.02655-2.31909-0.25928-3.20996    c0.09021,0.01196,0.18457,0.02661,0.27094,0.03613c0.48242,0.05371,0.98242,0.07812,1.49414,0.07812    c0.62695,0,1.27203-0.04199,1.92188-0.10815c0.1712,0.42041,0.48816,1.6687-0.14142,4.01416    c-0.49182-0.14648-0.94891-0.28931-1.33807-0.42358C79.39111,49.98682,78.72693,49.86572,78.00299,49.79297z M87.70892,52.27588    c-0.5556-0.13257-1.13177-0.27222-1.7204-0.41785c0.47705-1.85193,0.43219-4.73047,0.36859-6.21179    c0.48273-0.12891,0.95044-0.26196,1.39948-0.39734C88.28412,46.41467,89.34717,49.46301,87.70892,52.27588z"/><circle fill="#000000" cx="26.61615" cy="40.02563" r="1.5"/><circle fill="#000000" cx="22.61615" cy="55.02563" r="1"/><circle fill="#000000" cx="27.69946" cy="57.02563" r="1"/><circle fill="#000000" cx="31.44946" cy="61.19238" r="1"/><circle fill="#000000" cx="35.78284" cy="51.77563" r="1"/><circle fill="#000000" cx="39.94946" cy="50.52563" r="1"/><circle fill="#000000" cx="27.69946" cy="50.10901" r="1"/><circle fill="#000000" cx="45.75" cy="53.75" r="1"/><circle fill="#000000" cx="37.75" cy="57.58325" r="1"/><circle fill="#000000" cx="38.58331" cy="64.41663" r="1"/><circle fill="#000000" cx="48.83331" cy="60" r="1"/><circle fill="#000000" cx="51.66669" cy="50.16663" r="1"/><circle fill="#000000" cx="55.25" cy="54.08325" r="1"/><circle fill="#000000" cx="60" cy="51.25" r="1"/><circle fill="#000000" cx="64.83331" cy="49.41663" r="1"/><circle fill="#000000" cx="48.66669" cy="47.25" r="1"/><circle fill="#000000" cx="32.66669" cy="48.25" r="1"/><circle fill="#000000" cx="31.25" cy="54.08325" r="1"/><circle fill="#000000" cx="22.5" cy="48.66663" r="1"/></g></g></svg>