<svg xmlns="http://www.w3.org/2000/svg" xmlns:xlink="http://www.w3.org/1999/xlink" version="1.1" x="0px" y="0px" viewBox="0 10 100 70" xml:space="preserve"><g><path fill="#000000" d="M81.0332,47.58203c-2.94727-1.85742-5.76074-2.39648-8.36719-1.60938   c-2.46051,0.74634-4.18695,2.52783-5.23682,3.96411c-0.16284-0.58203-0.31525-1.14307-0.40674-1.70044   c-0.09863-0.60059-0.13477-1.22363-0.17285-1.88281c-0.04492-0.77637-0.09082-1.5791-0.24805-2.38867   c-0.36621-1.89648-1.01562-3.90039-1.98535-6.12695c-1.72949-3.97363-1.09863-10.38184-1.0918-10.44531   c0.00983-0.09729-0.0105-0.18848-0.02747-0.28003c0.31268-1.24036,0.51495-2.84424,0.58313-5.23364   c0.01562-0.55176-0.41992-1.0127-0.97168-1.02832c-0.56934-0.00977-1.0127,0.41992-1.02832,0.97168   c-0.13672,4.83789-0.81738,6.0293-1.94434,8.00195c-0.50879,0.89062-1.1416,1.99805-1.83105,3.61426   c-2.125,4.97949-0.65332,7.7959,0.5293,10.05957c0.15625,0.29883,0.31055,0.59375,0.45508,0.8916   c1.78613,3.67285,0.55273,6.01074-1.31543,9.54883l-0.19824,0.37598c-1.41113,2.67969-1.33887,5.38574-1.26855,8.00293   c0.02148,0.78711,0.04297,1.58301,0.02344,2.38672c-0.05859,2.5-1.20508,5.16797-3.22656,7.51367   c-2.27008,2.63208-3.77271,6.26843-4.58362,8.63379c-0.50751-0.9082-1.07806-2.00586-1.49854-2.99023   c0.01215-0.01685,0.02795-0.0293,0.03918-0.04688c0.17871-0.28125,4.39355-6.91504,5.71777-9.90918   c1.55957-3.53125,0.92285-8.49219,0.69141-9.92773c-0.32129-1.99219,0.19434-5.06445,1.62109-9.66699   c1.31934-4.25879,0.35547-7.30371-0.34863-9.52734c-0.15137-0.47852-0.29297-0.9209-0.39258-1.33203   c-0.51465-2.12305-0.13574-5.18848,0.99023-8c1.2998-3.25,1.17871-10.01953,1.17285-10.30664   c-0.00055-0.02881-0.01495-0.052-0.01788-0.07996c0.77869-1.74438,1.40204-3.60852,1.72589-5.59094   c0.08887-0.54492-0.28125-1.05957-0.82617-1.14844c-0.54688-0.08789-1.05957,0.28125-1.14844,0.82617   c-0.79004,4.8418-3.63379,9.0791-5.91797,12.4834c-0.76367,1.1377-1.48438,2.21191-2.02051,3.15918   c-2.15332,3.80469-2.30176,9.40234-1.90332,11.55273c0.57031,3.08203-0.4375,5.61816-1.60547,8.55469   c-0.19434,0.48828-0.38965,0.98047-0.58008,1.48145c-1.6123,4.24023-2.44043,7.74805-2.60547,11.04004   c-0.11914,2.38184,0.67871,4.50879,1.4502,6.56543c0.37598,1.00488,0.73145,1.95312,0.98926,2.93164   c0.25879,0.98633,0.27051,1.97461,0.2832,3.02148c0.00977,0.78125,0.01953,1.58789,0.13281,2.43555   c0.18097,1.35791,1.22198,3.47815,2.06769,5.02588c-0.97235-0.46851-2.1167-1.00964-3.35059-1.57446   c-0.07227-0.15845-0.1709-0.30591-0.32452-0.41235c-0.37598-0.25977-1.01953-2.125-0.94727-4.09766   c0.0752-2-1.13574-6.31445-2.23242-7.95898c-0.63184-0.94727-0.57227-3.43652-0.53613-4.92383   c0.00781-0.34668,0.01562-0.66016,0.01562-0.92578c0-0.80664,0.10645-1.5918,0.21875-2.42285   c0.25488-1.87793,0.51855-3.82031-0.52637-5.91699l-0.36523-0.72754c-1.32617-2.62988-2.37305-4.70703-1.99805-7.69727   c0.12988-1.03711,0.53027-2.05566,0.9541-3.13477c0.5625-1.43066,1.14355-2.91016,1.12305-4.55469   c-0.0293-2.28809-0.71777-4.44531-1.38379-6.53125c-0.237-0.74097-0.46893-1.47949-0.67206-2.21851   c0.90692-1.99219,1.52441-4.177,1.40839-6.03638c-0.03516-0.55078-0.49023-0.96875-1.06055-0.93555   c-0.55078,0.03418-0.96973,0.50879-0.93555,1.06055c0.20996,3.36719-2.61328,8.12695-4.22168,9.59668   c-1.7168,1.57031-2.67578,3.86719-2.56348,6.14355l0.02832,0.49902c0.06543,1.12207,0.13281,2.2832-0.26367,3.21484   c-0.22656,0.53027-0.50977,1.03711-0.78418,1.52637c-0.82422,1.47168-1.75879,3.13867-0.94727,5.4541   c0.17383,0.49512,0.38477,0.96289,0.58984,1.41504c0.27441,0.6084,0.53418,1.18262,0.67871,1.7666   c0.25,1.00977-0.08594,2.25488-0.44238,3.57324c-0.52539,1.9502-1.12207,4.15918,0.31348,5.96777   c0.23828,0.30078,0.50195,0.58203,0.76758,0.8623c0.39258,0.41602,0.76367,0.80957,0.99219,1.23828   c0.47852,0.89941,0.40918,2.06152,0.33496,3.29102l-0.01465,0.24805c-0.15234,2.60156,0.75293,4.35254,1.8623,6.21289   c1.4082,2.36133,3.81836,5.49121,7.30078,6.99512c4.55762,1.96777,8.9873,4.21875,9.03125,4.24219   c0.14551,0.07324,0.2998,0.1084,0.45312,0.1084c0.36328,0,0.71484-0.19922,0.8916-0.54492   c0.02246-0.04395,2.29688-4.42969,5.35449-5.47656c3.62531-1.24048,4.9621-4.74231,5.18781-5.41187   c3.15076-1.08972,7.078-2.79773,7.2663-6.64697l0.31641-0.09155c1.18359-0.33496,2.52441-0.71484,3.48828-1.66602   c1.58789-1.56543,2.24902-4.98145,2.29297-6.76758c0.01172-0.51855-0.02539-1.02051-0.06152-1.50586   c-0.03125-0.41602-0.06348-0.83203-0.05762-1.24805c0.02051-1.37109,0.29785-3.07422,0.86914-3.78711   c0.41406-0.51562,1.32812-0.87402,1.99609-1.13574c1.19141-0.46777,2.49707-0.82227,3.88184-1.05371   c0.40918-0.06836,0.7334-0.38281,0.81543-0.78906C81.5625,48.21777,81.38477,47.80273,81.0332,47.58203z M43.81152,61.52246   c0.15332-3.07617,0.94043-6.38965,2.47656-10.42871c0.18652-0.49121,0.37891-0.97461,0.56934-1.45312   c1.22852-3.08984,2.38965-6.00879,1.71387-9.6582c-0.3418-1.8418-0.2002-6.8877,1.67676-10.2041   c0.49902-0.88086,1.16699-1.87598,1.94043-3.02832c0.78229-1.16553,1.6239-2.43384,2.43665-3.78418   c-0.11603,1.99707-0.37415,4.32129-0.9425,5.74219c-1.29102,3.22559-1.69336,6.66992-1.07617,9.21387   c0.10938,0.45215,0.2627,0.93945,0.42871,1.46484c0.65918,2.08203,1.47949,4.67188,0.3457,8.33203   c-1.54297,4.97461-2.0625,8.2373-1.68555,10.57715c0.43262,2.67676,0.51562,6.39453-0.54688,8.80078   c-0.62036,1.40381-1.96588,3.73804-3.17999,5.75928c0.51715-2.68311,1.04553-6.14221,0.9046-8.53955   c-0.24707-4.20703,1.2627-11.94141,2.4541-15.63477c0.16895-0.52539-0.11914-1.08887-0.64551-1.25879   c-0.52246-0.16504-1.08887,0.12012-1.25879,0.64551c-1.23926,3.8418-2.80762,11.92676-2.5459,16.36523   c0.10358,1.75916-0.20477,4.23132-0.58783,6.47131c-0.0332-0.16406-0.05878-0.32642-0.1026-0.4928   c-0.28223-1.07715-0.67285-2.11816-1.05078-3.12598C44.4043,65.33398,43.71289,63.49023,43.81152,61.52246z M34.17188,72.37988   c-1.13574-1.90527-1.69238-3.21191-1.58398-5.07227l0.01465-0.24414c0.08301-1.38477,0.17773-2.9541-0.56543-4.35059   c-0.35449-0.66699-0.83789-1.17773-1.30469-1.67188c-0.22461-0.23828-0.45117-0.47656-0.6543-0.73242   c-0.80859-1.01855-0.41016-2.49414,0.05176-4.20312c0.40625-1.50586,0.82617-3.06348,0.45215-4.5752   c-0.18848-0.76074-0.49805-1.44629-0.79785-2.10938c-0.1875-0.41406-0.375-0.82715-0.52539-1.25293   c-0.51172-1.46387,0.04004-2.4502,0.80469-3.81543c0.30078-0.53613,0.61133-1.08984,0.87988-1.7207   c0.58008-1.36328,0.49512-2.8252,0.41992-4.11426l-0.02637-0.48145c-0.08301-1.68848,0.63281-3.39551,1.91504-4.56836   c0.66846-0.61108,1.41595-1.54956,2.12128-2.66931c0.03552,0.11145,0.06964,0.22278,0.10529,0.33435   c0.64941,2.03516,1.26367,3.95898,1.28906,5.94824c0.01562,1.25195-0.46973,2.48926-0.98438,3.79785   c-0.4502,1.14648-0.91602,2.33203-1.07715,3.61816c-0.45117,3.59375,0.83496,6.14453,2.19629,8.8457l0.36133,0.71973   c0.77051,1.54492,0.56836,3.0332,0.33496,4.75586c-0.11621,0.86035-0.2373,1.75-0.2373,2.69141   c0,0.25195-0.00684,0.5498-0.01465,0.87793c-0.04688,1.94434-0.11035,4.60742,0.87109,6.08105   c0.87598,1.31348,1.95801,5.17578,1.89844,6.77539c-0.01007,0.27319-0.0022,0.58813,0.01483,0.91675   C37.77362,72.3241,35.375,67.13806,35.375,61c0-3.37109-0.73828-7.04492-0.77051-7.19922   c-0.10938-0.54004-0.62988-0.89062-1.17871-0.78027c-0.54102,0.10938-0.89062,0.6377-0.78125,1.17871   C32.65234,54.23535,33.375,57.83398,33.375,61c0,6.729,2.63727,12.32166,5.17426,16.40356   C36.58984,75.97217,35.1275,73.98218,34.17188,72.37988z M54.83789,76.83594c-1.22174,0.41821-2.30341,1.21191-3.22754,2.0979   c0.61792-1.42932,1.40833-2.96851,2.37158-4.32568c0.39697,0.13794,0.81317,0.19556,1.23584,0.19556   c0.95947,0,1.94116-0.29126,2.7981-0.58276C57.40723,75.1748,56.40033,76.30176,54.83789,76.83594z M65.91309,58.41309   c-0.19434,1.60547-0.39648,3.26562-0.27051,5.00293c0.03125,0.44238,0.09375,0.88281,0.15625,1.32324   c0.08496,0.5918,0.16406,1.15039,0.1582,1.69238c-0.0332,3.0332-4.04004,4.36816-6.96582,5.34375l-0.70239,0.23901   c2.03809-1.53931,4.32123-3.79077,4.70044-6.3689c0.32715-2.22559,0.51465-4.1709,0.69629-6.05176   c0.16211-1.68555,0.31641-3.27734,0.55273-4.81641c0.08398-0.5459-0.29004-1.05664-0.83594-1.14062   c-0.54395-0.08203-1.05664,0.29004-1.14062,0.83594c-0.24512,1.5957-0.40137,3.21484-0.56738,4.92871   c-0.17871,1.85742-0.36328,3.77734-0.68359,5.95312c-0.28461,1.93372-2.2796,3.85645-4.15979,5.2406   c1.04492-1.90759,1.63336-3.90759,1.67932-5.84412c0.01953-0.83789-0.00195-1.66602-0.02441-2.4873   c-0.06641-2.46875-0.12891-4.80078,1.03906-7.01758l0.19727-0.37402c1.91895-3.63379,3.5752-6.77246,1.3457-11.35742   c-0.15332-0.31445-0.31641-0.62695-0.48145-0.94238c-1.13965-2.18066-2.21582-4.24121-0.46191-8.34863   c0.46515-1.09033,0.89294-1.91333,1.28656-2.62402c0.0882,2.22229,0.41608,4.88843,1.35114,7.03711   c0.91016,2.08984,1.51758,3.95703,1.85645,5.70801c0.13086,0.67773,0.17188,1.38086,0.21484,2.12402   c0.03906,0.68164,0.08008,1.3877,0.19629,2.09277c0.12207,0.74609,0.3252,1.4668,0.52148,2.16406   c0.18164,0.64648,0.35449,1.25684,0.46191,1.87207C66.37891,54.57129,66.15234,56.4375,65.91309,58.41309z M76.05273,48.60645   c-0.87695,0.34375-2.07715,0.81445-2.82422,1.74512c-1.13574,1.41406-1.29492,3.97461-1.31055,5.01074   c-0.00684,0.47559,0.02734,0.9502,0.06348,1.4248c0.0332,0.45801,0.06543,0.88965,0.05566,1.30957   c-0.04492,1.83984-0.7373,4.44531-1.69727,5.3916c-0.5802,0.57166-1.61035,0.87524-2.53925,1.13965   c-0.00806-0.05664-0.01422-0.1156-0.02228-0.17188c-0.05566-0.39355-0.11328-0.78711-0.1416-1.18359   c-0.11133-1.54492,0.07031-3.03809,0.26172-4.61914c0.22955-1.89648,0.45966-3.85425,0.16956-5.94751   c0.31635-0.63623,2.06256-3.88135,5.1908-4.823c1.33789-0.40137,2.7793-0.33301,4.30273,0.20215   C77.04395,48.24121,76.54004,48.41504,76.05273,48.60645z"/></g></svg>